<?xml version="1.0" encoding="UTF-8"?>
<!DOCTYPE svg PUBLIC "-//W3C//DTD SVG 1.1//EN" "http://www.w3.org/Graphics/SVG/1.1/DTD/svg11.dtd">
<svg xmlns="http://www.w3.org/2000/svg" version="1.1" width="330px" height="256px" style="shape-rendering:geometricPrecision; text-rendering:geometricPrecision; image-rendering:optimizeQuality; fill-rule:evenodd; clip-rule:evenodd" xmlns:xlink="http://www.w3.org/1999/xlink">
<g><path style="opacity:0.982" fill="#f5f6f5" d="M -0.5,-0.5 C 60.5,-0.5 121.5,-0.5 182.5,-0.5C 182.5,11.8333 182.5,24.1667 182.5,36.5C 133.833,36.5 85.1667,36.5 36.5,36.5C 36.5,48.5 36.5,60.5 36.5,72.5C 121.834,72.3333 207.167,72.5 292.5,73C 305.006,84.6726 317.339,96.5059 329.5,108.5C 329.5,121.167 329.5,133.833 329.5,146.5C 317.5,146.5 305.5,146.5 293.5,146.5C 293.5,158.167 293.5,169.833 293.5,181.5C 305.5,181.5 317.5,181.5 329.5,181.5C 329.5,206.167 329.5,230.833 329.5,255.5C 316.5,255.5 303.5,255.5 290.5,255.5C 290.5,231.167 290.5,206.833 290.5,182.5C 255.167,182.5 219.833,182.5 184.5,182.5C 184.5,206.833 184.5,231.167 184.5,255.5C 171.833,255.5 159.167,255.5 146.5,255.5C 146.5,231.167 146.5,206.833 146.5,182.5C 97.5,182.5 48.5,182.5 -0.5,182.5C -0.5,170.167 -0.5,157.833 -0.5,145.5C 48.1667,145.5 96.8333,145.5 145.5,145.5C 145.5,133.5 145.5,121.5 145.5,109.5C 96.8333,109.5 48.1667,109.5 -0.5,109.5C -0.5,72.8333 -0.5,36.1667 -0.5,-0.5 Z M 184.5,109.5 C 219.833,109.5 255.167,109.5 290.5,109.5C 290.179,121.414 290.512,133.247 291.5,145C 255.835,145.5 220.168,145.667 184.5,145.5C 184.5,133.5 184.5,121.5 184.5,109.5 Z"/></g>
</svg>
